<svg xmlns="http://www.w3.org/2000/svg" width="425" height="225" viewBox="0 0 425 225"><defs><clipPath id="a"><path d="M0 25h400v200H0z"/></clipPath></defs><path fill="none" stroke="#000" d="M8.889 225V25M26.667 225V25M44.444 225V25M62.222 225V25M80 225V25M97.778 225V25M115.556 225V25M133.333 225V25M151.111 225V25M168.889 225V25M186.667 225V25M204.444 225V25M222.222 225V25M240 225V25M257.778 225V25M275.556 225V25M293.333 225V25M311.111 225V25M328.889 225V25M346.667 225V25M364.444 225V25M382.222 225V25M400 225V25M0 225h400M0 211.667h400M0 198.333h400M0 185h400M0 171.667h400M0 158.333h400M0 145h400M0 131.667h400M0 118.333h400M0 105h400M0 91.667h400M0 78.333h400M0 65h400M0 51.667h400M0 38.333h400M0 25h400" stroke-width="2" opacity=".1"/><path fill="none" stroke="#000" d="M7.05 192.734c-.35 2.1-4.2 5.25-5.25 5.6 1.05.35 4.9 3.5 5.25 5.6" stroke-width="2" stroke-linejoin="round" stroke-linecap="round"/><path fill="none" stroke="#000" d="M26.667 198.333H1.05" stroke-width="2"/><path fill="none" stroke="#000" d="M394.45 203.933c.35-2.1 4.2-5.25 5.25-5.6-1.05-.35-4.9-3.5-5.25-5.6" stroke-width="2" stroke-linejoin="round" stroke-linecap="round"/><path fill="none" stroke="#000" d="M26.667 198.333H398.95" stroke-width="2"/><path fill="none" stroke="#000" d="M21.817 218.7c2.1.35 5.25 4.2 5.6 5.25.35-1.05 3.5-4.9 5.6-5.25" stroke-width="2" stroke-linejoin="round" stroke-linecap="round"/><path fill="none" stroke="#000" d="M26.667 198.333v25.617" stroke-width="2"/><path fill="none" stroke="#000" d="M33.017 31.3c-2.1-.35-5.25-4.2-5.6-5.25-.35 1.05-3.5 4.9-5.6 5.25" stroke-width="2" stroke-linejoin="round" stroke-linecap="round"/><path fill="none" stroke="#000" d="M26.667 198.333V26.05" stroke-width="2"/><path fill="none" stroke="#000" d="M62.222 203.333v-10M97.778 203.333v-10M133.333 203.333v-10M168.889 203.333v-10M204.444 203.333v-10M240 203.333v-10M275.556 203.333v-10M311.111 203.333v-10M346.667 203.333v-10M382.222 203.333v-10M21.667 171.667h10M21.667 145h10M21.667 118.333h10M21.667 91.667h10M21.667 65h10M21.667 38.333h10"/><path fill="none" stroke="#11accd" d="M27 186.241l.5-17.625.5-9.041.5-6.126.5-4.639.5-3.735.5-3.126.5-2.688.5-2.359.5-2.1.5-1.894.5-1.724.5-1.582.5-1.461.5-1.359.5-1.268.5-1.191.5-1.12.5-1.06.5-1.003.5-.954.5-.909.5-.868.5-.831.5-.796.5-.764.5-.736.5-.708.5-.683.5-.659.5-.638.5-.617.5-.598.5-.58.5-.563.5-.547.5-.532.5-.518.5-.504.5-.491.5-.479.5-.467.5-.457.5-.445.5-.436.5-.426.5-.416.5-.408.5-.4.5-.391.5-.383.5-.376.5-.369.5-.362.5-.355.5-.349.5-.342.5-.337.5-.33.5-.325.5-.32.5-.315.5-.31.5-.304.5-.3.5-.295.5-.29.5-.287.5-.282.5-.278.5-.274.5-.27.5-.267.5-.263.5-.26.5-.255.5-.253.5-.249.5-.246.5-.243.5-.24.5-.237.5-.234.5-.232.5-.228.5-.226.5-.223.5-.22.5-.219.5-.216.5-.213.5-.211.5-.209.5-.206.5-.204.5-.203.5-.2.5-.198.5-.196.5-.194.5-.192.5-.19.5-.188.5-.186.5-.185.5-.183.5-.181.5-.18.5-.178.5-.176.5-.174.5-.173.5-.172.5-.17.5-.168.5-.167.5-.166.5-.164.5-.163.5-.161.5-.16.5-.16.5-.157.5-.156.5-.155.5-.153.5-.153.5-.151.5-.15.5-.15.5-.147.5-.147.5-.145.5-.145.5-.143.5-.142.5-.142.5-.14.5-.14.5-.137.5-.138.5-.136.5-.135.5-.135.5-.133.5-.132.5-.132.5-.13.5-.13.5-.13.5-.128.5-.127.5-.126.5-.126.5-.125.5-.124.5-.123.5-.122.5-.122.5-.12.5-.12.5-.12.5-.119.5-.118.5-.117.5-.116.5-.116.5-.115.5-.114.5-.114.5-.113.5-.113.5-.111.5-.111.5-.11.5-.11.5-.11.5-.108.5-.108.5-.108.5-.106.5-.107.5-.105.5-.105.5-.105.5-.104.5-.103.5-.103.5-.102.5-.102.5-.1.5-.101.5-.1.5-.1.5-.1.5-.098.5-.098.5-.097.5-.097.5-.097.5-.096.5-.096.5-.095.5-.095.5-.094.5-.094.5-.093.5-.093.5-.092.5-.092.5-.092.5-.09.5-.091.5-.09.5-.09.5-.09.5-.089.5-.088.5-.089.5-.087.5-.088.5-.087.5-.086.5-.087.5-.085.5-.086.5-.085.5-.084.5-.085.5-.084.5-.083.5-.084.5-.082.5-.083.5-.082.5-.082.5-.081.5-.081.5-.081.5-.08.5-.08.5-.08.5-.08.5-.079.5-.079.5-.078.5-.078.5-.078.5-.078.5-.077.5-.077.5-.076.5-.077.5-.076.5-.075.5-.076.5-.075.5-.075.5-.074.5-.074.5-.074.5-.074.5-.073.5-.073.5-.073.5-.073.5-.072.5-.072.5-.072.5-.071.5-.071.5-.071.5-.071.5-.07.5-.07.5-.07.5-.07.5-.07.5-.069.5-.069.5-.068.5-.069.5-.068.5-.068.5-.067.5-.068.5-.067.5-.067.5-.067.5-.066.5-.067.5-.066.5-.066.5-.065.5-.066.5-.065.5-.065.5-.064.5-.065.5-.064.5-.064.5-.064.5-.064.5-.063.5-.064.5-.063.5-.062.5-.063.5-.063.5-.062.5-.062.5-.062.5-.061.5-.062.5-.06.5-.062.5-.06.5-.061.5-.06.5-.061.5-.06.5-.06.5-.06.5-.06.5-.059.5-.059.5-.059.5-.058.5-.06.5-.058.5-.058.5-.058.5-.058.5-.058.5-.057.5-.057.5-.058.5-.057.5-.057.5-.056.5-.057.5-.056.5-.056.5-.057.5-.055.5-.056.5-.056.5-.055.5-.055.5-.055.5-.056.5-.054.5-.055.5-.054.5-.055.5-.054.5-.054.5-.054.5-.053.5-.054.5-.053.5-.054.5-.053.5-.053.5-.053.5-.052.5-.053.5-.052.5-.052.5-.053.5-.051.5-.052.5-.052.5-.052.5-.05.5-.052.5-.051.5-.051.5-.051.5-.05.5-.051.5-.051.5-.05.5-.05.5-.05.5-.05.5-.05.5-.05.5-.05.5-.049.5-.05.5-.048.5-.05.5-.048.5-.05.5-.048.5-.048.5-.049.5-.048.5-.048.5-.049.5-.047.5-.048.5-.048.5-.048.5-.047.5-.047.5-.048.5-.047.5-.047.5-.047.5-.046.5-.047.5-.047.5-.046.5-.046.5-.047.5-.046.5-.046.5-.046.5-.046.5-.045.5-.046.5-.045.5-.046.5-.045.5-.045.5-.045.5-.045.5-.045.5-.044.5-.045.5-.044.5-.045.5-.044.5-.044.5-.045.5-.044.5-.044.5-.043.5-.044.5-.044.5-.043.5-.044.5-.043.5-.043.5-.043.5-.043.5-.043.5-.043.5-.043.5-.042.5-.043.5-.042.5-.043.5-.042.5-.042.5-.042.5-.042.5-.042.5-.042.5-.041.5-.042.5-.042.5-.041.5-.041.5-.042.5-.04.5-.042.5-.041.5-.04.5-.042.5-.04.5-.041.5-.04.5-.041.5-.04.5-.04.5-.041.5-.04.5-.04.5-.04.5-.04.5-.04.5-.04.5-.04.5-.039.5-.04.5-.039.5-.04.5-.038.5-.04.5-.039.5-.039.5-.038.5-.04.5-.038.5-.039.5-.038.5-.039.5-.038.5-.039.5-.038.5-.038.5-.039.5-.038.5-.038.5-.038.5-.037.5-.038.5-.038.5-.037.5-.038.5-.038.5-.037.5-.037.5-.038.5-.037.5-.037.5-.037.5-.037.5-.037.5-.037.5-.036.5-.037.5-.037.5-.036.5-.037.5-.036.5-.037.5-.036.5-.036.5-.036.5-.036.5-.036.5-.036.5-.036.5-.036.5-.036.5-.035.5-.036.5-.035.5-.036.5-.035.5-.036.5-.035.5-.035.5-.035.5-.035.5-.036.5-.035.5-.034.5-.035.5-.035.5-.035.5-.034.5-.035.5-.035.5-.034.5-.034.5-.035.5-.034.5-.034.5-.034.5-.035.5-.033.5-.035.5-.033.5-.034.5-.034.5-.034.5-.033.5-.034.5-.034.5-.033.5-.034.5-.033.5-.033.5-.034.5-.033.5-.033.5-.033.5-.033.5-.033.5-.033.5-.033.5-.033.5-.032.5-.033.5-.033.5-.032.5-.033.5-.032.5-.033.5-.032.5-.032.5-.033.5-.032.5-.032.5-.032.5-.032.5-.032.5-.032.5-.032.5-.032.5-.032.5-.032.5-.031.5-.032.5-.031.5-.032.5-.031.5-.032.5-.031.5-.032.5-.03.5-.032.5-.031.5-.031.5-.031.5-.031.5-.031.5-.031.5-.031.5-.03.5-.032.5-.03.5-.031.5-.03.5-.031.5-.03.5-.031.5-.03.5-.031.5-.03.5-.03.5-.031.5-.03.5-.03.5-.03.5-.03.5-.03.5-.03.5-.03.5-.03.5-.03.5-.03.5-.03.5-.03.5-.029.5-.03.5-.029.5-.03.5-.029.5-.03.5-.029.5-.029.5-.03.5-.028.5-.03.5-.029.5-.029.5-.029.5-.029.5-.029.5-.029.5-.029.5-.028.5-.03.5-.028.5-.029.5-.028.5-.029.5-.029.5-.028.5-.029.5-.028.5-.029.5-.028.5-.028.5-.028.5-.029.5-.028.5-.028.5-.028.5-.028.5-.028.5-.028.5-.028.5-.028.5-.028.5-.028.5-.028.5-.027.5-.028.5-.028.5-.027.5-.028.5-.028.5-.027.5-.028.5-.027.5-.027.5-.028.5-.027.5-.027.5-.028.5-.027.5-.027.5-.027.5-.027.5-.027.5-.027.5-.027.5-.027.5-.027.5-.027.5-.027.5-.026.5-.027.5-.027.5-.027.5-.026.5-.027.5-.026.5-.027.5-.026.5-.027.5-.026.5-.027.5-.026.5-.026.5-.027.5-.026.5-.026.5-.026.5-.026.5-.026.5-.026.5-.027.5-.025.5-.026.5-.026.5-.026.5-.026.5-.026.5-.026" stroke-width="3" clip-path="url(#a)"/></svg>
